<?xml version="1.0" standalone="no"?>
<!DOCTYPE svg PUBLIC "-//W3C//DTD SVG 20010904//EN"
 "http://www.w3.org/TR/2001/REC-SVG-20010904/DTD/svg10.dtd">
<svg version="1.0" xmlns="http://www.w3.org/2000/svg"
 width="999.000000pt" height="219.000000pt" viewBox="0 0 999.000000 219.000000"
 preserveAspectRatio="xMidYMid meet">

<g transform="translate(0.000000,219.000000) scale(0.100000,-0.100000)"
fill="#000000" stroke="none">
<path d="M929 1831 c-20 -4 -52 -17 -71 -29 -113 -70 -134 -252 -30 -252 35 0
72 37 72 71 0 14 10 35 23 47 l23 22 592 0 c579 0 592 0 612 -20 19 -19 20
-33 20 -410 0 -377 -1 -391 -20 -410 -15 -15 -33 -20 -69 -20 l-49 0 -3 208
c-4 206 -4 207 -32 255 -15 26 -47 60 -69 75 l-42 27 -615 3 c-432 2 -627 0
-654 -8 -21 -6 -56 -27 -77 -46 -71 -64 -71 -67 -68 -536 l3 -416 30 -44 c20
-28 49 -52 84 -70 l55 -28 605 0 c680 0 652 -2 719 75 48 54 54 76 60 221 l5
131 64 6 c81 8 137 38 178 95 l30 44 0 438 0 438 -30 44 c-17 23 -51 54 -75
68 l-45 25 -595 2 c-327 0 -611 -2 -631 -6z m928 -593 c18 -17 23 -32 23 -75
l0 -53 -544 0 -545 0 -15 -22 c-24 -34 -20 -73 10 -97 26 -21 36 -21 560 -21
l534 0 0 -269 0 -270 -27 -21 c-26 -20 -30 -20 -614 -18 -549 3 -589 4 -606
21 -17 16 -18 49 -21 407 l-3 390 25 25 25 25 587 0 588 0 23 -22z"/>
<path d="M5412 1053 l3 -468 117 -3 117 -3 3 146 3 146 85 -145 85 -146 138 0
c75 0 137 2 137 5 0 3 -50 80 -111 171 -60 91 -112 171 -115 178 -3 8 42 86
100 175 l106 161 -133 0 -132 0 -80 -133 -80 -132 -3 258 -2 257 -120 0 -120
0 2 -467z"/>
<path d="M8700 1050 l0 -470 115 0 115 0 0 188 c1 217 7 256 50 295 36 32 96
37 129 10 33 -27 41 -80 41 -295 l0 -198 115 0 115 0 0 238 c0 258 -6 300 -54
372 -14 22 -47 52 -73 67 -42 25 -58 28 -133 28 -74 0 -91 -3 -134 -27 -27
-16 -50 -28 -52 -28 -2 0 -4 65 -4 145 l0 145 -115 0 -115 0 0 -470z"/>
<path d="M2868 1474 c-5 -4 -8 -207 -8 -451 l0 -443 228 0 c250 0 304 8 374
59 44 31 84 91 100 146 22 81 -19 191 -92 244 l-38 27 33 27 c45 36 75 101 75
166 0 89 -50 159 -145 203 -47 21 -66 23 -285 26 -129 2 -238 0 -242 -4z m424
-213 c25 -31 23 -79 -4 -108 -19 -20 -31 -23 -105 -23 l-83 0 0 81 0 82 87 -5
c74 -4 89 -8 105 -27z m9 -337 c14 -14 21 -34 21 -59 0 -63 -26 -79 -132 -83
l-90 -4 0 87 0 87 90 -4 c75 -2 93 -6 111 -24z"/>
<path d="M6180 1030 l0 -450 193 0 c232 0 300 10 393 55 87 43 154 111 197
203 28 59 32 79 35 172 3 88 0 115 -18 169 -51 151 -167 252 -329 287 -44 9
-133 14 -268 14 l-203 0 0 -450z m448 205 c82 -35 122 -102 122 -205 0 -146
-70 -212 -239 -226 l-81 -7 0 227 0 226 80 0 c50 0 95 -6 118 -15z"/>
<path d="M3895 1276 c-56 -17 -80 -32 -127 -74 -87 -78 -124 -177 -115 -305
10 -141 81 -247 206 -306 48 -22 70 -26 146 -26 81 0 97 3 154 31 l63 31 10
-23 c11 -23 16 -24 100 -24 l88 0 0 345 0 345 -90 0 c-65 0 -90 -3 -90 -12 0
-7 -4 -19 -9 -27 -7 -11 -14 -10 -39 8 -17 12 -50 28 -73 36 -50 18 -169 18
-224 1z m227 -212 c70 -36 97 -136 56 -213 -55 -105 -205 -110 -269 -9 -26 43
-23 140 6 180 48 64 131 81 207 42z"/>
<path d="M4891 1275 c-24 -7 -61 -27 -82 -44 l-38 -31 -12 35 -13 35 -83 0
-83 0 0 -345 0 -345 114 0 115 0 3 213 c2 175 6 217 20 243 19 34 55 54 98 54
83 0 90 -21 90 -290 l0 -220 121 0 120 0 -3 258 c-3 220 -6 263 -21 297 -56
125 -203 185 -346 140z"/>
<path d="M7323 1272 c-109 -39 -173 -102 -214 -211 -29 -77 -24 -221 10 -299
36 -80 123 -156 212 -183 97 -29 188 -23 269 18 l58 30 11 -23 c10 -23 16 -24
101 -24 l90 0 0 345 0 345 -88 0 c-84 0 -89 -1 -100 -24 l-11 -25 -58 32 c-49
27 -70 32 -143 34 -64 3 -98 -1 -137 -15z m242 -213 c100 -60 91 -219 -17
-275 -38 -20 -107 -17 -148 5 -40 21 -80 89 -80 135 0 36 30 105 53 125 51 41
133 46 192 10z"/>
<path d="M8142 1272 c-57 -21 -114 -68 -140 -117 -20 -39 -20 -141 2 -183 32
-62 101 -98 231 -122 85 -15 115 -32 115 -65 0 -65 -110 -71 -140 -8 l-15 33
-107 0 -108 0 0 -32 c1 -76 57 -150 145 -190 42 -19 66 -23 155 -23 88 0 113
4 155 23 96 44 145 114 145 206 0 128 -58 181 -239 217 -97 20 -131 38 -131
70 0 20 36 49 62 49 31 0 68 -23 74 -47 6 -22 9 -23 116 -23 l111 0 -6 37
c-10 61 -56 122 -117 157 -50 28 -64 31 -155 34 -78 2 -112 -2 -153 -16z"/>
<path d="M9520 690 l0 -110 115 0 115 0 0 110 0 110 -115 0 -115 0 0 -110z"/>
</g>
</svg>
