<svg width="1332" height="292" viewBox="0 0 1332 292" fill="none" xmlns="http://www.w3.org/2000/svg">
<rect x="177" y="208" width="54" height="18" rx="9" fill="#FF46AF"/>
<rect x="72" y="123" width="29" height="119" fill="#C4D9F4"/>
<path d="M123.867 47.8668C121.2 48.4002 116.933 50.1335 114.4 51.7335C99.3334 61.0668 96.5334 85.3335 110.4 85.3335C115.067 85.3335 120 80.4002 120 75.8668C120 74.0002 121.333 71.2002 123.067 69.6002L126.133 66.6668H205.067C282.267 66.6668 284 66.6668 286.667 69.3335C289.2 71.8668 289.333 73.7335 289.333 124C289.333 174.267 289.2 176.134 286.667 178.667C284.667 180.667 282.267 181.334 277.467 181.334H270.933L270.533 153.6C270 126.134 270 126 266.267 119.6C264.267 116.134 260 111.6 257.067 109.6L251.467 106L169.467 105.6C111.867 105.334 85.8667 105.6 82.2667 106.667C79.4667 107.467 74.8 110.267 72 112.8C62.5334 121.334 62.5334 121.734 62.9334 184.267L63.3334 239.733L67.3334 245.6C70 249.333 73.8667 252.533 78.5334 254.933L85.8667 258.667H166.533C257.2 258.667 253.467 258.933 262.4 248.667C268.8 241.467 269.6 238.533 270.4 219.2L271.067 201.733L279.6 200.933C290.4 199.867 297.867 195.867 303.333 188.267L307.333 182.4V124V65.6002L303.333 59.7335C301.067 56.6668 296.533 52.5335 293.333 50.6668L287.333 47.3335L208 47.0668C164.4 47.0668 126.533 47.3335 123.867 47.8668ZM247.6 126.934C250 129.2 250.667 131.2 250.667 136.934V144H178.133H105.467L103.467 146.934C100.267 151.467 100.8 156.667 104.8 159.867C108.267 162.667 109.6 162.667 179.467 162.667H250.667V198.533V234.533L247.067 237.333C243.6 240 243.067 240 165.2 239.733C92 239.333 86.6667 239.2 84.4 236.933C82.1334 234.8 82 230.4 81.6 182.667L81.2 130.667L84.5334 127.334L87.8667 124H166.133H244.533L247.6 126.934Z" fill="#0123BB"/>
<rect x="73" y="115" width="187" height="135" rx="17" stroke="#0123BB" stroke-width="20"/>
<path d="M721.6 151.6L722 214L737.6 214.4L753.2 214.8L753.6 195.334L754 175.867L765.333 195.2L776.667 214.667H795.067C805.067 214.667 813.334 214.4 813.334 214C813.334 213.6 806.667 203.334 798.534 191.2C790.533 179.067 783.6 168.4 783.2 167.467C782.8 166.4 788.8 156 796.534 144.134L810.667 122.667H792.933H775.333L764.667 140.4L754 158L753.6 123.6L753.333 89.3336H737.333H721.333L721.6 151.6Z" fill="#272640"/>
<path d="M1160 152V214.667H1175.33H1190.67V189.6C1190.8 160.667 1191.6 155.467 1197.33 150.267C1202.13 146 1210.13 145.334 1214.53 148.934C1218.93 152.534 1220 159.6 1220 188.267V214.667H1235.33H1250.67V182.934C1250.67 148.534 1249.87 142.934 1243.47 133.334C1241.6 130.4 1237.2 126.4 1233.73 124.4C1228.13 121.067 1226 120.667 1216 120.667C1206.13 120.667 1203.87 121.067 1198.13 124.267C1194.53 126.4 1191.47 128 1191.2 128C1190.93 128 1190.67 119.334 1190.67 108.667V89.3337H1175.33H1160V152Z" fill="#272640"/>
<path d="M382.4 95.467C381.733 96.0003 381.333 123.067 381.333 155.6V214.667H411.733C445.067 214.667 452.267 213.6 461.6 206.8C467.467 202.667 472.8 194.667 474.934 187.334C477.867 176.534 472.4 161.867 462.667 154.8L457.6 151.2L462 147.6C468 142.8 472 134.134 472 125.467C472 113.6 465.334 104.267 452.667 98.4003C446.4 95.6003 443.867 95.3337 414.667 94.9337C397.467 94.667 382.933 94.9337 382.4 95.467ZM438.933 123.867C442.267 128 442 134.4 438.4 138.267C435.867 140.934 434.267 141.334 424.4 141.334H413.333V130.534V119.6L424.933 120.267C434.8 120.8 436.8 121.334 438.933 123.867ZM440.133 168.8C442 170.667 442.933 173.334 442.933 176.667C442.933 185.067 439.467 187.2 425.333 187.734L413.333 188.267V176.667V165.067L425.333 165.6C435.333 165.867 437.733 166.4 440.133 168.8Z" fill="#272640"/>
<path d="M824 154.667V214.667H849.733C880.667 214.667 889.733 213.334 902.133 207.334C913.733 201.6 922.667 192.534 928.4 180.267C932.133 172.4 932.667 169.734 933.067 157.334C933.467 145.6 933.067 142 930.667 134.8C923.867 114.667 908.4 101.2 886.8 96.5337C880.933 95.3337 869.067 94.667 851.067 94.667H824V154.667ZM883.733 127.334C894.667 132 900 140.934 900 154.667C900 174.134 890.667 182.934 868.133 184.8L857.333 185.734V155.467V125.334H868C874.667 125.334 880.667 126.134 883.733 127.334Z" fill="#272640"/>
<path d="M519.333 121.867C511.867 124.134 508.667 126.134 502.4 131.734C490.8 142.134 485.867 155.334 487.067 172.4C488.4 191.2 497.867 205.334 514.533 213.2C520.933 216.134 523.867 216.667 534 216.667C544.8 216.667 546.933 216.267 554.533 212.534L562.933 208.4L564.267 211.467C565.733 214.534 566.4 214.667 577.6 214.667H589.333V168.667V122.667H577.333C568.667 122.667 565.333 123.067 565.333 124.267C565.333 125.2 564.8 126.8 564.133 127.867C563.2 129.334 562.267 129.2 558.933 126.8C556.667 125.2 552.267 123.067 549.2 122C542.533 119.6 526.667 119.6 519.333 121.867ZM549.6 150.134C558.933 154.934 562.533 168.267 557.067 178.534C549.733 192.534 529.733 193.2 521.2 179.734C517.733 174 518.133 161.067 522 155.734C528.4 147.2 539.467 144.934 549.6 150.134Z" fill="#272640"/>
<path d="M652.134 122C648.934 122.934 644 125.6 641.2 127.867L636.134 132L634.534 127.334L632.8 122.667H621.734H610.667V168.667V214.667H625.867H641.2L641.6 186.267C641.867 162.934 642.4 157.334 644.267 153.867C646.8 149.334 651.6 146.667 657.334 146.667C668.4 146.667 669.334 149.467 669.334 185.334V214.667H685.467H701.467L701.067 180.267C700.667 150.934 700.267 145.2 698.267 140.667C690.8 124 671.2 116 652.134 122Z" fill="#272640"/>
<path d="M976.4 122.4C961.867 127.6 953.333 136 947.867 150.534C944 160.8 944.667 180 949.2 190.4C954 201.067 965.6 211.2 977.467 214.8C990.4 218.667 1002.53 217.867 1013.33 212.4L1021.07 208.4L1022.53 211.467C1023.87 214.534 1024.67 214.667 1036 214.667H1048V168.667V122.667H1036.27C1025.07 122.667 1024.4 122.8 1022.93 125.867L1021.47 129.2L1013.73 124.934C1007.2 121.334 1004.4 120.667 994.667 120.4C986.133 120 981.6 120.534 976.4 122.4ZM1008.67 150.8C1022 158.8 1020.8 180 1006.4 187.467C1001.33 190.134 992.133 189.734 986.667 186.8C981.333 184 976 174.934 976 168.8C976 164 980 154.8 983.067 152.134C989.867 146.667 1000.8 146 1008.67 150.8Z" fill="#272640"/>
<path d="M1085.6 122.4C1078 125.2 1070.4 131.467 1066.93 138C1064.27 143.2 1064.27 156.8 1067.2 162.4C1071.47 170.667 1080.67 175.467 1098 178.667C1109.33 180.667 1113.33 182.934 1113.33 187.334C1113.33 196 1098.67 196.8 1094.67 188.4L1092.67 184H1078.4H1064V188.267C1064.13 198.4 1071.6 208.267 1083.33 213.6C1088.93 216.134 1092.13 216.667 1104 216.667C1115.73 216.667 1119.07 216.134 1124.67 213.6C1137.47 207.734 1144 198.4 1144 186.134C1144 169.067 1136.27 162 1112.13 157.2C1099.2 154.534 1094.67 152.134 1094.67 147.867C1094.67 145.2 1099.47 141.334 1102.93 141.334C1107.07 141.334 1112 144.4 1112.8 147.6C1113.6 150.534 1114 150.667 1128.27 150.667H1143.07L1142.27 145.734C1140.93 137.6 1134.8 129.467 1126.67 124.8C1120 121.067 1118.13 120.667 1106 120.267C1095.6 120 1091.07 120.534 1085.6 122.4Z" fill="#272640"/>
<path d="M1269.33 200V214.667H1284.67H1300V200V185.334H1284.67H1269.33V200Z" fill="#272640"/>
</svg>
